<svg xmlns="http://www.w3.org/2000/svg" width="256" height="256"><path fill-opacity=".016" d="M0 128.004v128.004l128.25-.254 128.25-.254.254-127.75L257.008 0H0v128.004m.485.496c0 70.4.119 99.053.265 63.672.146-35.38.146-92.98 0-128C.604 29.153.485 58.1.485 128.5" fill="#1976D2" fill-rule="evenodd"/><path fill-opacity=".219" d="M104 1.969C83.691 5.777 67.326 12.181 52.39 22.167 25.381 40.225 8.257 65.553 1.899 96.847c-5.784 28.467 2.9 60.821 23.132 86.192 11.033 13.835 22.618 23.083 39.953 31.894 17.427 8.858 36.376 14.049 51.397 14.08 5.922.012 6.342.191 13.015 5.563 8.002 6.441 20.833 13.143 33.908 17.711 9.107 3.182 9.38 3.213 28.196 3.213 18.902 0 19.049-.017 28.5-3.296 10.176-3.531 29.89-12.995 34-16.322l2.5-2.024-9.425.455c-16.378.792-28.353-1.657-36.918-7.549-4.94-3.399-9.822-10.459-10.786-15.6-.573-3.056-.3-3.739 2.231-5.573 13.16-9.539 25.333-22.981 33.637-37.145 17.147-29.248 19.013-66.673 4.88-97.843-7.664-16.903-23.702-35.751-40.049-47.066C172.771 4.643 134.988-3.84 104 1.969m2.585 9.071c-49.263 7.74-88.359 44.268-95.632 89.35-1.617 10.023-.722 28.959 1.802 38.11 11.641 42.219 47.82 73.158 93.476 79.937 5.789.86 12.871 1.563 15.737 1.563 4.802 0 5.631.374 10.547 4.75 9.308 8.286 24.253 16.036 38.485 19.959 9.227 2.543 30.662 2.486 41.25-.108 4.262-1.045 7.75-2.283 7.75-2.75 0-.468-.688-.851-1.529-.851-2.825 0-13.599-6.077-18.055-10.184-5.573-5.137-10.147-14.442-10.97-22.316l-.628-6 6.341-4.155c14.786-9.689 30.672-29.141 37.524-45.949 21.324-52.303-4.977-110.529-60.071-132.991-15.829-6.454-26.138-8.543-44.112-8.941-8.8-.194-18.662.065-21.915.576M41.672 57.661c-.369.37-.672 14.322-.672 31.006V119h171.11l-.305-4.75-.305-4.75H127V102h85V92h-85v-7.5h84.5v-10l-42.25-.261-42.25-.261v-6.956l42.25-.261 42.25-.261v-9l-84.578-.256c-46.517-.14-84.88.047-85.25.417M76 63c0 .55.477 1 1.059 1s.781-.45.441-1-.816-1-1.059-1-.441.45-.441 1m14.5 0c-.34.55-.141 1 .441 1S92 63.55 92 63s-.198-1-.441-1-.719.45-1.059 1m29 0c-.34.55-.141 1 .441 1S121 63.55 121 63s-.198-1-.441-1-.719.45-1.059 1M54 70.059c0 .582.45.781 1 .441s1-.816 1-1.059S55.55 69 55 69s-1 .477-1 1.059M68.5 70c.34.55.816 1 1.059 1s.441-.45.441-1-.477-1-1.059-1-.781.45-.441 1m44 0c.34.55.816 1 1.059 1s.441-.45.441-1-.477-1-1.059-1-.781.45-.441 1m-65.99 6.016c.346.559 1.047.758 1.559.441C49.456 75.6 49.198 75 47.441 75c-.857 0-1.276.457-.931 1.016M61 76c0 .55.45 1 1 1s1-.45 1-1-.45-1-1-1-1 .45-1 1m14.5 0c.34.55 1.041 1 1.559 1s.941-.45.941-1-.702-1-1.559-1-1.281.45-.941 1M90 76c0 .55.423 1 .941 1s1.219-.45 1.559-1c.34-.55-.084-1-.941-1S90 75.45 90 76m14.5 0c.34.55 1.041 1 1.559 1s.941-.45.941-1-.702-1-1.559-1-1.281.45-.941 1m15.01.016c.346.559 1.047.758 1.559.441 1.387-.857 1.129-1.457-.628-1.457-.857 0-1.276.457-.931 1.016M54 82c0 .55.477 1 1.059 1s.781-.45.441-1-.816-1-1.059-1-.441.45-.441 1m29 0c0 .55.45 1 1 1s1-.45 1-1-.45-1-1-1-1 .45-1 1m29 0c0 .55.45 1 1 1s1-.45 1-1-.45-1-1-1-1 .45-1 1m-36 6c0 .55.477 1 1.059 1s.781-.45.441-1-.816-1-1.059-1-.441.45-.441 1m14.5 0c-.34.55-.141 1 .441 1S92 88.55 92 88s-.198-1-.441-1-.719.45-1.059 1m29 0c-.34.55-.141 1 .441 1S121 88.55 121 88s-.198-1-.441-1-.719.45-1.059 1m-21.947 5.915a1.116 1.116 0 0 0 .362 1.532c.521.322 1.21.159 1.532-.362a1.116 1.116 0 0 0-.362-1.532 1.116 1.116 0 0 0-1.532.362M54 95c0 .55.45 1 1 1s1-.45 1-1-.45-1-1-1-1 .45-1 1m14.51.016c.346.559 1.047.758 1.559.441C71.456 94.6 71.198 94 69.441 94c-.857 0-1.276.457-.931 1.016M83 95c0 .55.45 1 1 1s1-.45 1-1-.45-1-1-1-1 .45-1 1m29 0c0 .55.45 1 1 1s1-.45 1-1-.45-1-1-1-1 .45-1 1m-51 6c0 .55.45 1 1 1s1-.45 1-1-.45-1-1-1-1 .45-1 1m15 0c0 .55.477 1 1.059 1s.781-.45.441-1-.816-1-1.059-1-.441.45-.441 1m14 0c0 .55.45 1 1 1s1-.45 1-1-.45-1-1-1-1 .45-1 1m15 0c0 .55.45 1 1 1s1-.45 1-1-.45-1-1-1-1 .45-1 1m14.5 0c.34.55.816 1 1.059 1s.441-.45.441-1-.477-1-1.059-1-.781.45-.441 1M54 107c0 .55.45 1 1 1s1-.45 1-1-.45-1-1-1-1 .45-1 1m29 0c0 .55.45 1 1 1s1-.45 1-1-.45-1-1-1-1 .45-1 1m29 0c0 .55.45 1 1 1s1-.45 1-1-.45-1-1-1-1 .45-1 1m-50.5 6c-.34.55-.141 1 .441 1S63 113.55 63 113s-.198-1-.441-1-.719.45-1.059 1m14.5 0c0 .55.477 1 1.059 1s.781-.45.441-1-.816-1-1.059-1-.441.45-.441 1m14.5 0c-.34.55-.141 1 .441 1S92 113.55 92 113s-.198-1-.441-1-.719.45-1.059 1m14.5 0c0 .55.477 1 1.059 1s.781-.45.441-1-.816-1-1.059-1-.441.45-.441 1m14 0c0 .55.45 1 1 1s1-.45 1-1-.45-1-1-1-1 .45-1 1m-78 19.006v5.005l85.25-.255 85.25-.256.305-4.75.305-4.75H41v5.006m0 16.988V154h171.11l-.305-4.75-.305-4.75-85.25-.256-85.25-.255v5.005m0 18.012v5.005l85.25-.255 85.25-.256.305-4.75.305-4.75H41v5.006" fill="#1976D2" fill-rule="evenodd"/><path fill-opacity=".408" d="M115 1.012c-1.375.479-7 1.542-12.5 2.364C62.974 9.281 28.03 34.654 11.436 69.5c-4.413 9.266-6.515 16.124-9.194 30-5.061 26.214 3.472 57.516 22.427 82.263 19.828 25.888 55.015 44.203 90.105 46.9 8.094.622 9.039.933 13.465 4.432 19.147 15.135 39.214 22.191 63.261 22.244 19.481.044 34.365-4.14 53.779-15.117l8.779-4.964-13.779-.494c-15.696-.562-23.702-2.65-31.279-8.154-4.69-3.407-9.283-10.651-10.332-16.294-.558-3.005-.203-3.471 6.337-8.319 14.327-10.621 26.199-25.581 34.645-43.656 6.976-14.928 8.773-23.775 8.805-43.341.033-19.873-1.864-28.899-9.375-44.623-6.153-12.881-11.022-20.023-20.56-30.163-16.7-17.751-38.968-30.24-63.52-35.622-16.597-3.639-35.076-5.293-40-3.58m-4.712 9.087c-47.117 5.486-86.742 38.097-97.973 80.633C10.11 99.081 9.736 102.606 9.736 115c0 12.372.376 15.925 2.564 24.208 8.805 33.342 35.735 61.68 70.466 74.151 9.209 3.307 24.144 6.333 35.734 7.24 8.73.683 9.144.83 13.796 4.89 16.539 14.431 44.74 24.003 65.131 22.108 7.484-.696 17.194-2.726 22.073-4.616l3-1.163-6.077-2.22c-8.273-3.023-12.536-5.817-17.787-11.658-4.917-5.469-7.439-11.593-8.212-19.94l-.51-5.5 7.158-4.991c9.226-6.432 22.427-20.328 28.373-29.868 17.535-28.135 20.209-60.591 7.505-91.107-6.327-15.197-20.159-32.487-34.899-43.621-9.591-7.245-28.737-16.474-40.143-19.35-16.525-4.166-31.953-5.288-47.62-3.464M41.235 88.25l.265 30.25 84.75.256 84.75.255v-8.989l-42.25-.261-42.25-.261v-8l42.25-.261 42.25-.261v-7.956l-42.25-.261-42.25-.261v-8l42.25-.261 42.25-.261v-8.956l-42.25-.261-42.25-.261v-8l42.25-.261 42.25-.261V58H40.971l.264 30.25m5.404-26.556C45.444 62.889 45.994 65 47.5 65c.825 0 1.5-.648 1.5-1.441 0-1.671-1.427-2.798-2.361-1.865m29 0C74.444 62.889 74.994 65 76.5 65c.825 0 1.5-.648 1.5-1.441 0-1.671-1.427-2.798-2.361-1.865m15 0C89.444 62.889 89.994 65 91.5 65c.825 0 1.5-.648 1.5-1.441 0-1.671-1.427-2.798-2.361-1.865m29 0c-1.195 1.195-.645 3.306.861 3.306.825 0 1.5-.648 1.5-1.441 0-1.671-1.427-2.798-2.361-1.865M61 63.583c0 1.766 2.153 1.459 2.771-.395.218-.654-.317-1.188-1.188-1.188S61 62.712 61 63.583m43-.083c0 .825.675 1.5 1.5 1.5s1.5-.675 1.5-1.5-.675-1.5-1.5-1.5-1.5.675-1.5 1.5m-6.361 4.194C96.444 68.889 96.994 71 98.5 71c.825 0 1.5-.648 1.5-1.441 0-1.671-1.427-2.798-2.361-1.865m-44.096 1.237c-.74 1.197 1.141 2.382 2.473 1.559C57.135 69.799 56.4 68 55 68c-.485 0-1.141.419-1.457.931M68 69.5c0 .825.675 1.5 1.5 1.5s1.5-.675 1.5-1.5-.675-1.5-1.5-1.5-1.5.675-1.5 1.5m14.459-.433c-.92 1.489.147 2.298 2.061 1.564.884-.339 1.327-1.07.984-1.624-.81-1.311-2.215-1.284-3.045.06m29.084-.136c-.74 1.197 1.141 2.382 2.473 1.559 1.119-.691.384-2.49-1.016-2.49-.485 0-1.141.419-1.457.931m-65.519 6.054c-.979.605-.798 1.066.741 1.889 1.574.843 2.157.773 2.572-.31.644-1.679-1.499-2.7-3.313-1.579m14.519-.054c-.74 1.197 1.141 2.382 2.473 1.559C64.135 75.799 63.4 74 62 74c-.485 0-1.141.419-1.457.931m15.055-.195c-.998.997-.675 2.02.819 2.594.78.299 1.651-.066 1.937-.81.537-1.399-1.696-2.844-2.756-1.784m14.657.106c-.642.397-.803 1.271-.364 1.982.621 1.005 1.038.966 1.996-.188 1.343-1.618.17-2.907-1.632-1.794m14.164.289c-1.08 1.747 1.125 3.123 2.449 1.528.929-1.119.862-1.549-.31-1.999-.822-.315-1.784-.103-2.139.471m14.077-.124c-.343.554.1 1.285.984 1.624 1.914.734 2.981-.075 2.061-1.564-.83-1.344-2.235-1.371-3.045-.06M68.5 81c-.399.646-.276 1.624.274 2.174.667.667 1.242.609 1.726-.174.399-.646.276-1.624-.274-2.174-.667-.667-1.242-.609-1.726.174m14.098-.264c-1.123 1.122-.601 3.264.795 3.264 1.89 0 2.813-2.707 1.142-3.348-.737-.283-1.608-.245-1.937.084m15.041-.042c-1.176 1.176-.656 2.973.861 2.973.825 0 1.5-.574 1.5-1.275 0-1.533-1.469-2.59-2.361-1.698m-44.41 1.494c.617 1.851 2.461 2.061 3.116.354.415-1.081-.022-1.542-1.46-1.542-1.139 0-1.876.528-1.656 1.188m58.104.312c0 .825.552 1.5 1.227 1.5.674 0 1.485-.675 1.802-1.5.38-.991-.036-1.5-1.227-1.5-.991 0-1.802.675-1.802 1.5m-64.694 4.194C45.444 87.889 45.994 90 47.5 90c.825 0 1.5-.648 1.5-1.441 0-1.671-1.427-2.798-2.361-1.865m28.871.29c-.737 1.193.199 3.016 1.549 3.016 1.217 0 1.225-2.707.01-3.457-.512-.317-1.213-.118-1.559.441m14.92.337c-.8 2.087.2 3.449 1.545 2.104.568-.568.583-1.522.037-2.405-.767-1.242-1.007-1.196-1.582.301m28.979.055c-.847 2.208.28 3.335 1.808 1.807.902-.902.905-1.461.016-2.35-.89-.89-1.324-.761-1.824.543m-58.866.555c-.74 1.197 1.141 2.382 2.473 1.559C64.135 88.799 63.4 87 62 87c-.485 0-1.141.419-1.457.931m43.686.257c.618 1.854 2.771 2.161 2.771.395 0-.87-.713-1.583-1.583-1.583-.871 0-1.406.534-1.188 1.188m-6.59 4.506C96.444 93.889 96.994 96 98.5 96c.825 0 1.5-.648 1.5-1.441 0-1.671-1.427-2.798-2.361-1.865M53 94.5c0 1.03.655 1.52 1.75 1.31 2.108-.406 1.975-2.181-.197-2.633-.906-.189-1.553.362-1.553 1.323m14.694-.861c-.933.934.194 2.361 1.865 2.361.793 0 1.441-.675 1.441-1.5 0-1.506-2.111-2.056-3.306-.861m14.765.428c-.92 1.489.147 2.298 2.061 1.564.884-.339 1.327-1.07.984-1.624-.81-1.311-2.215-1.284-3.045.06m29.084-.136c-.74 1.197 1.141 2.382 2.473 1.559 1.119-.691.384-2.49-1.016-2.49-.485 0-1.141.419-1.457.931m-64.904 5.763c-1.126 1.126-.685 2.306.861 2.306.825 0 1.5-.423 1.5-.941 0-1.261-1.562-2.164-2.361-1.365M61 100.5c0 .917.484 1.505 1.075 1.308.591-.197 1.075-.785 1.075-1.308s-.484-1.111-1.075-1.308c-.591-.197-1.075.391-1.075 1.308m14.485-.475c-.408.659-.121 1.584.637 2.055 1.663 1.033 2.559-.799 1.103-2.255-.666-.666-1.246-.599-1.74.2m14.924.351c-.835 2.177-.251 2.762 1.612 1.611 1.143-.707 1.199-1.167.253-2.113-.945-.945-1.352-.835-1.865.502m14.258-.709c-1.151 1.15-.729 2.333.833 2.333.825 0 1.5-.675 1.5-1.5 0-1.562-1.183-1.984-2.333-.833m14.333.75c0 .87.713 1.583 1.583 1.583 1.766 0 1.459-2.153-.395-2.771-.654-.218-1.188.317-1.188 1.188M68.5 106c-.399.646-.276 1.624.274 2.174.667.667 1.242.609 1.726-.174.399-.646.276-1.624-.274-2.174-.667-.667-1.242-.609-1.726.174m13.973.044c-.68 1.101.248 2.956 1.479 2.956.459 0 1.079-.638 1.378-1.417.619-1.614-1.954-3-2.857-1.539m15.166-.35c-1.195 1.195-.645 3.306.861 3.306.825 0 1.5-.648 1.5-1.441 0-1.671-1.427-2.798-2.361-1.865m-44.41 1.494c.617 1.851 2.461 2.061 3.116.354.415-1.081-.022-1.542-1.46-1.542-1.139 0-1.876.528-1.656 1.188m58.409.312c.317.825.93 1.5 1.362 1.5.432 0 1.045-.675 1.362-1.5.389-1.015-.051-1.5-1.362-1.5-1.311 0-1.751.485-1.362 1.5m-65.332 4.212c-1.519.531-.518 3.288 1.194 3.288.707 0 1.531-.638 1.83-1.417.584-1.524-1.077-2.552-3.024-1.871m29 0c-1.519.531-.518 3.288 1.194 3.288.707 0 1.531-.638 1.83-1.417.584-1.524-1.077-2.552-3.024-1.871m14.988.106c-.767.474-.868 1.254-.283 2.2.721 1.167 1.159 1.212 2.147.224 1.492-1.492-.075-3.529-1.864-2.424m29.012-.118c-1.57.565-.492 3.3 1.301 3.3.766 0 1.393-.648 1.393-1.441 0-1.721-1.055-2.449-2.694-1.859m-58.651 1.842c.655 1.707 2.499 1.497 3.116-.354.22-.66-.517-1.188-1.656-1.188-1.438 0-1.875.461-1.46 1.542m43.574-.354c.617 1.851 2.461 2.061 3.116.354.415-1.081-.022-1.542-1.46-1.542-1.139 0-1.876.528-1.656 1.188m-62.835 15.228c-.299.778-.397 2.691-.219 4.25l.325 2.834 84.75.256 84.75.255V127h-84.531c-71.975 0-84.612.21-85.075 1.416m-.201 20.834.307 4.25 84.75.256 84.75.255V145H40.885l.308 4.25m.201 14.166c-.299.778-.397 2.691-.219 4.25l.325 2.834 84.75.256 84.75.255V162h-84.531c-71.975 0-84.612.21-85.075 1.416" fill="#1976D2" fill-rule="evenodd"/><path fill-opacity=".405" d="M42 88v30h169.121l-.311-3.75-.31-3.75-42.25-.261-42.25-.261V101h85v-8h-85V83h85v-8h-85v-9h85v-8H42v30m4.383-26.565c-1.257 1.346-.415 3.957 1.395 4.324 1.893.384 2.627-2.496 1.041-4.083-1.022-1.021-1.649-1.083-2.436-.241m43.741-.159c-1.854 1.854-1.349 4.617.814 4.454 2.324-.175 3.245-2.835 1.535-4.433-.907-.847-1.517-.853-2.349-.021m-29.436.37c-1.546 1.546-.656 4.227 1.353 4.076 1.421-.107 1.953-.748 1.75-2.11-.308-2.072-1.955-3.115-3.103-1.966m14.608.197c-1.451.932-.131 3.601 1.954 3.951 1.165.196 1.75-.353 1.75-1.643 0-2.093-2.051-3.371-3.704-2.308m29.09-.077c-1.544 1.018-.272 3.668 1.942 4.046 1.389.237 1.749-.224 1.5-1.922-.358-2.44-1.702-3.27-3.442-2.124m14.281-.099c-1.481 1.48-.628 4.206 1.271 4.063 2.361-.178 3.415-3.381 1.37-4.165-1.837-.705-1.834-.705-2.641.102m-65.451 6.178C51.477 68.949 52.78 72 54.99 72c2.247 0 3.335-3.661 1.318-4.435-1.784-.685-1.535-.708-3.092.28m14.656-.595c-.07.138-.233 1.263-.363 2.5-.165 1.569.296 2.25 1.521 2.25 2.195 0 3.485-3.056 1.754-4.155-1.262-.801-2.661-1.087-2.912-.595m14.344.595C80.477 68.949 81.78 72 83.99 72c2.247 0 3.335-3.661 1.318-4.435-1.784-.685-1.535-.708-3.092.28m14.909.077c-1.513.936-.371 4.078 1.482 4.078.766 0 1.393-.188 1.393-.418 0-.23.251-1.072.557-1.871.643-1.675-1.667-2.879-3.432-1.789m14.231-.295c-1.747.716-.364 4.373 1.654 4.373 2.21 0 3.513-3.051 1.774-4.155-1.406-.892-1.733-.913-3.428-.218m-65.231 6.295C44.491 74.932 45.822 78 47.894 78c.94 0 1.744-.846 1.825-1.919.161-2.138-1.76-3.292-3.594-2.159m14.153.2C58.756 75.644 59.802 78 62 78s3.244-2.356 1.722-3.878C63.105 73.505 62.33 73 62 73c-.33 0-1.105.505-1.722 1.122m14.847-.2C73.491 74.932 74.822 78 76.894 78c.94 0 1.744-.846 1.825-1.919.161-2.138-1.76-3.292-3.594-2.159m14.153.2C87.756 75.644 88.802 78 91 78c2.218 0 3.527-3.049 1.784-4.155-1.71-1.085-2.181-1.048-3.506.277m14.976.024c-1.533 1.533-.418 3.854 1.853 3.854 2.182 0 2.513-2.241.569-3.854-.961-.798-1.624-.798-2.422 0m14.413-.479c-1.443 1.443-.625 4.333 1.226 4.333 2.286 0 3.383-2.324 1.829-3.878-1.284-1.284-2.104-1.406-3.055-.455m-50.491 6.557c-1.957 1.957-1.457 4.662.755 4.084 2.449-.641 3.332-2.845 1.686-4.211-.891-.739-1.612-.702-2.441.127m29.08.014c-1.154 1.443-.313 4.158 1.387 4.476 1.661.312 2.374-3.455.886-4.69-.896-.743-1.557-.681-2.273.214m-43.953.555c-1.443.916-.478 2.603 2.016 3.525 1.451.536 1.754.234 1.5-1.495-.354-2.407-1.699-3.184-3.516-2.03m29.385-.147c-.379.378-.688 1.47-.688 2.427 0 1.261.564 1.592 2.048 1.204 1.154-.302 1.919-1.207 1.75-2.073-.336-1.732-2.069-2.6-3.11-1.558m29 0c-.379.378-.688 1.47-.688 2.427 0 1.261.564 1.592 2.048 1.204 1.154-.302 1.919-1.207 1.75-2.073-.336-1.732-2.069-2.6-3.11-1.558m-65.419 5.592c-1.71 2.166-1.089 4.512 1.194 4.512 2.442 0 3.146-2.999 1.103-4.696-.943-.782-1.575-.731-2.297.184m28.992.309c-1.582 1.718-.732 3.992 1.558 4.164 2.051.155 2.664-3.073.864-4.544-.785-.642-1.6-.514-2.422.38m14.975-.269c-1.59 2.017-1.066 4.585.905 4.436 2.401-.18 3.199-2.517 1.455-4.26-1.089-1.09-1.61-1.129-2.36-.176m-29.569.389c-1.382 1.381-.638 4.108 1.083 3.972 2.443-.194 3.834-2.654 2.116-3.743-1.66-1.052-2.329-1.1-3.199-.229m43.549.179c-1.803 1.143-.57 3.702 1.872 3.886 1.54.116 1.96-.362 1.724-1.961-.354-2.396-1.708-3.121-3.596-1.925m14.451-.179c-1.498 1.497-.626 4.206 1.307 4.06 2.068-.156 3.431-2.262 2.47-3.817-.657-1.064-2.818-1.203-3.777-.243m-65.451 6.178C51.477 93.949 52.78 97 54.99 97c2.247 0 3.335-3.661 1.318-4.435-1.784-.685-1.535-.708-3.092.28m14.656-.595c-.07.138-.233 1.263-.363 2.5-.165 1.569.296 2.25 1.521 2.25 2.195 0 3.485-3.056 1.754-4.155-1.262-.801-2.661-1.087-2.912-.595m14.344.595C80.477 93.949 81.78 97 83.99 97c2.247 0 3.335-3.661 1.318-4.435-1.784-.685-1.535-.708-3.092.28m14.909.077c-1.513.936-.371 4.078 1.482 4.078.766 0 1.393-.188 1.393-.418 0-.23.251-1.072.557-1.871.643-1.675-1.667-2.879-3.432-1.789m14.231-.295c-1.747.716-.364 4.373 1.654 4.373 2.21 0 3.513-3.051 1.774-4.155-1.406-.892-1.733-.913-3.428-.218m-65.102 6.519c-1.533 1.533-.418 3.854 1.853 3.854 2.182 0 2.513-2.241.569-3.854-.961-.798-1.624-.798-2.422 0m14.434-.5c-.379.378-.688 1.695-.688 2.927 0 1.767.434 2.126 2.052 1.703 1.376-.36 1.953-1.21 1.75-2.578-.317-2.145-1.948-3.219-3.114-2.052M75.2 99.2c-1.488 1.488-.328 3.8 1.907 3.8 1.191 0 1.893-.702 1.893-1.893 0-2.235-2.312-3.395-3.8-1.907m14.488-.554c-1.541 1.54-.648 4.354 1.382 4.354 1.555 0 1.99-.539 1.75-2.172-.332-2.255-1.94-3.375-3.132-2.182m14.502.625c-1.249 1.505-.431 3.101 2.06 4.021 1.268.467 1.75.137 1.75-1.201 0-2.677-2.434-4.478-3.81-2.82m14.417.311c-1.004 2.617-.703 3.418 1.286 3.418 2.286 0 3.383-2.324 1.829-3.878-1.535-1.535-2.398-1.408-3.115.46m-50.431 5.642c-1.957 1.957-1.457 4.662.755 4.084 2.449-.641 3.332-2.845 1.686-4.211-.891-.739-1.612-.702-2.441.127m28.954.12c-.95 1.144-.847 1.796.496 3.139 1.593 1.593 1.752 1.593 2.643 0 .663-1.183.513-2.13-.496-3.139-1.259-1.259-1.599-1.259-2.643 0m-44.505.454c-.671 1.085.524 2.719 2.526 3.456 1.095.403 1.816-.022 2.14-1.259.615-2.35-3.402-4.242-4.666-2.197m29.681-.154C80.567 106.351 81.903 109 84 109c2.296 0 3.348-2.653 1.355-3.417-.835-.321-1.594-.547-1.687-.504-.092.043-.705.297-1.362.565m29.05-.017c-1.876.769-.412 4.328 1.493 3.627 2.343-.863 3.254-2.569 1.848-3.462-1.318-.838-1.659-.855-3.341-.165m-65.092 5.916c-.987 1.072-.92 1.658.331 2.909 1.689 1.689 3.405 1.242 3.405-.889 0-2.259-2.347-3.529-3.736-2.02m29.16-.171c-1.517 1.651-.613 3.628 1.659 3.628 2.164 0 2.558-2.231.667-3.777-.862-.705-1.584-.659-2.326.149m14.33.066c-1.761 1.288-1.183 2.866 1.397 3.816 2.018.742 3.094-2.302 1.38-3.903-.844-.788-1.613-.764-2.777.087m29.09-.058c-1.929 1.421-1.241 3.62 1.132 3.62 2.249 0 3.178-2.132 1.581-3.625-.877-.819-1.596-.818-2.713.005m-58.488.247c-1.876.769-.412 4.328 1.493 3.627 2.343-.863 3.254-2.569 1.848-3.462-1.318-.838-1.659-.855-3.341-.165m43.947.165c-1.406.893-.495 2.599 1.848 3.462 1.095.403 1.816-.022 2.14-1.259.283-1.082-.13-2.103-.983-2.43-1.779-.683-1.547-.7-3.005.227M42 131.75v3.75l84.25-.233 84.25-.232.31-3.518.311-3.517H42v3.75M42 149v4h169v-8H42v4m0 18v4h169v-8H42v4" fill="#1976D2" fill-rule="evenodd"/></svg>